<?xml version="1.0" encoding="UTF-8"?>
<svg width="363px" height="332px" viewBox="0 0 363 332" version="1.1" xmlns="http://www.w3.org/2000/svg" xmlns:xlink="http://www.w3.org/1999/xlink">
    <!-- Generator: Sketch 55.2 (78181) - https://sketchapp.com -->
    <title>Fill 17</title>
    <desc>Created with Sketch.</desc>
    <g id="Page-1" stroke="none" stroke-width="1" fill="none" fill-rule="evenodd">
        <path d="M307.707726,27.4130997 C307.837726,27.9760997 307.936726,28.5720997 307.890726,28.9640997 C307.782726,29.9060997 303.848726,40.5880997 303.568726,41.1550997 C303.286726,41.7210997 301.641726,42.9280997 301.412726,43.6270997 C301.185726,44.3270997 301.649726,51.5620997 301.229726,52.2460997 C300.810726,52.9290997 299.833726,53.3710997 299.236726,53.3060997 C298.637726,53.2410997 296.429726,52.6250997 296.054726,52.7980997 C295.680726,52.9720997 295.191726,55.1900997 294.894726,55.5110997 C294.596726,55.8310997 294.084726,55.9540997 293.830726,56.2020997 C293.578726,56.4500997 293.772726,57.1740997 293.530726,57.7310997 C293.289726,58.2880997 291.707726,58.4580997 291.334726,58.9010997 C290.963726,59.3450997 289.395726,61.8420997 288.868726,62.5930997 C288.339726,63.3440997 286.563726,63.3950997 285.279726,63.0780997 C284.751726,62.9470997 282.904726,61.0170997 280.761726,58.6150997 C279.554726,59.4400997 278.449726,61.2140997 279.062726,65.0190997 L279.568726,68.1670997 C285.720726,68.1230997 291.751726,71.6390997 295.683726,77.4410997 C295.683726,77.4410997 317.802726,82.2440997 328.171726,96.6050997 C330.842726,91.1530997 338.132726,82.7230997 340.419726,76.6220997 C342.705726,70.5210997 343.513726,67.0190997 344.290726,63.6950997 L344.290726,63.6940997 C344.461726,62.9640997 344.609726,62.2980997 344.735726,61.7130997 C344.804726,60.7870997 344.691726,59.6720997 344.047726,58.6810997 C342.613726,56.4790997 341.422726,52.7000997 341.645726,50.9360997 C341.865726,49.1710997 342.417726,45.9730997 342.002726,44.6080997 C341.589726,43.2440997 341.086726,41.7370997 342.071726,41.6610997 C343.056726,41.5830997 344.105726,42.5490997 344.105726,42.5490997 C344.105726,42.5490997 343.842726,38.6800997 344.646726,37.8050997 C345.451726,36.9310997 347.651726,36.4350997 348.312726,36.5870997 C348.972726,36.7380997 349.323726,37.8470997 349.323726,37.8470997 C349.323726,37.8470997 349.759726,37.1290997 350.099726,36.9660997 C350.441726,36.8010997 352.430726,36.9540997 353.109726,37.2910997 C353.787726,37.6270997 354.483726,39.0860997 354.483726,39.0860997 C354.483726,39.0860997 354.939726,38.6770997 355.458726,38.5230997 C355.977726,38.3700997 358.272726,39.0450997 358.692726,39.3230997 C359.112726,39.6000997 359.741726,41.0750997 359.741726,41.0750997 C360.939726,40.8650997 362.553726,41.8690997 362.706726,43.0530997 C362.859726,44.2370997 361.719726,50.8090997 360.950726,53.1130997 C360.182726,55.4160997 357.616726,58.7000997 357.616726,58.7000997 L356.371726,63.6290997 C356.635726,83.7120997 346.105726,116.7921 343.578726,120.0901 C340.802726,123.7141 333.191726,124.4961 333.191726,124.4961 L333.171726,124.4551 C329.059726,124.9421 323.514726,122.6281 317.961726,117.1981 C303.529726,114.3861 291.288726,107.3691 283.011726,99.2660997 C274.689726,110.2071 258.617726,121.1791 247.505726,123.4501 C247.505726,123.4501 233.429726,141.2731 221.458726,147.5811 C236.820726,160.4951 261.382726,184.3461 271.141726,211.6901 C271.141726,211.6901 273.484726,218.4821 268.124726,224.9671 C268.105726,224.9901 268.082726,225.0121 268.062726,225.0361 C261.462726,233.8381 244.796726,244.1981 228.417726,250.5661 C208.079726,258.4751 178.475726,275.9911 174.811726,277.1831 C174.431726,277.3071 174.076726,277.4131 173.745726,277.5051 C174.063726,277.9111 174.263726,278.3131 174.255726,278.6821 C174.224726,280.3781 169.802726,282.9801 169.802726,282.9801 C169.802726,282.9801 170.104726,284.1541 169.447726,285.1271 C168.791726,286.0991 159.103726,296.6341 158.346726,304.7781 C157.588726,312.9211 155.182726,312.9161 155.182726,312.9161 C155.182726,312.9161 154.853726,313.5541 154.546726,313.5901 C154.239726,313.6261 151.349726,313.1751 150.779726,312.7591 C150.209726,312.3451 148.142726,309.4881 148.019726,309.1301 C147.895726,308.7741 148.123726,308.4071 148.122726,308.3401 C148.121726,308.2751 147.726726,308.4031 147.608726,308.2931 C147.490726,308.1821 146.279726,306.0871 146.152726,305.3151 C146.152726,305.3151 146.178726,305.0441 146.263726,304.8941 C146.350726,304.7461 146.380726,304.7261 146.357726,304.6851 C146.334726,304.6441 145.995726,304.7381 145.934726,304.7061 C145.872726,304.6741 144.989726,303.1741 144.925726,301.2001 C144.860726,299.2251 145.523726,292.1101 145.938726,288.9121 C146.354726,285.7151 149.053726,264.9701 149.343726,262.7401 C149.634726,260.5091 152.039726,253.9411 154.786726,252.2931 C154.786726,252.2931 155.934726,251.7631 156.704726,252.3731 C156.704726,252.3731 157.486726,252.3241 158.011726,252.6571 C158.533726,252.9901 161.070726,254.1321 162.150726,254.5561 C162.150726,254.5561 162.508726,254.7731 162.398726,255.1841 C162.398726,255.1841 166.863726,255.8351 170.604726,257.9231 C177.307726,253.6481 186.933726,246.5711 198.678726,234.5821 C209.191726,223.8501 221.663726,217.8151 232.097726,214.4191 C230.152726,211.8691 228.572726,208.9221 227.533726,205.5561 C227.533726,205.5561 207.958726,197.9711 189.444726,183.5751 C178.564726,197.5831 157.238726,221.8421 131.711726,234.3401 C124.503726,242.8911 110.384726,252.6311 96.2817256,259.2291 C76.5167256,268.4771 48.1477256,287.9281 44.5697256,289.3631 C44.4727256,292.9161 30.7447256,303.8481 30.7447256,303.8481 C30.7447256,303.8481 30.7447256,305.1411 29.8087256,305.9731 C28.8717256,306.8061 16.0577256,315.1231 13.1127256,323.3421 C10.1677256,331.5601 7.68072556,330.9161 7.68072556,330.9161 C7.68072556,330.9161 7.17172556,331.4891 6.84472556,331.44751 C6.51772556,331.4001 3.64972556,330.1631 3.17072556,329.5851 C2.69172556,329.0061 1.31372556,325.5021 1.28072556,325.1011 C1.24772556,324.6991 1.57972556,324.3781 1.59672556,324.3111 C1.61272556,324.2431 1.17172556,324.2701 1.07772556,324.1241 C0.986725561,323.9801 0.289725561,321.4921 0.363725561,320.6611 C0.363725561,320.6611 0.462725561,320.3881 0.590725561,320.2551 C0.718725561,320.1221 0.756725561,320.1101 0.743725561,320.0631 C0.730725561,320.0141 0.356725561,320.0211 0.300725561,319.9711 C0.244725561,319.9221 -0.269274439,318.1371 0.187725561,316.0791 C0.645725561,314.0221 3.21872556,306.8391 4.49772556,303.6441 C5.77772556,300.4501 13.7537256,281.3211 14.6467256,279.0911 C15.5387256,276.8641 19.7697256,270.7111 23.0487256,269.7391 C23.0487256,269.7391 24.3737256,269.4941 25.0087256,270.3301 C25.0087256,270.3301 25.8307256,270.4871 26.2827256,270.9691 C26.7367256,271.4531 29.3767256,271.7041 30.3797256,272.4301 C30.3797256,272.4301 30.6937256,272.7491 30.4707256,273.1451 C30.4707256,273.1451 32.8897256,271.7751 35.4667256,272.9901 C41.7807256,268.6921 52.3587256,260.6541 65.5417256,245.2651 C79.5977256,228.8581 98.3457256,221.8651 109.507726,219.0011 C115.423726,195.7101 141.929726,159.6891 160.305726,142.7961 C163.882726,122.8991 187.087726,113.3961 187.087726,113.3961 C189.575726,111.3921 192.055726,109.4601 193.233726,108.7311 C193.233726,108.7311 204.703726,87.9790997 209.498726,83.3710997 C209.090726,79.9240997 209.112726,76.6960997 209.494726,73.6910997 C195.836726,72.2630997 183.942726,59.6320997 183.942726,59.6320997 C181.220726,64.6140997 171.241726,70.3710997 154.905726,77.5710997 C139.227726,84.4790997 132.833726,88.7590997 128.031726,90.2030997 C127.510726,90.8340997 127.065726,91.6380997 126.935726,92.6060997 C126.574726,95.3100997 124.954726,99.0990997 123.586726,100.3381 C122.217726,101.5801 119.617726,103.7311 119.020726,105.0871 C118.423726,106.4441 117.800726,107.9711 116.971726,107.3641 C116.141726,106.7591 115.968726,105.2871 115.968726,105.2871 C115.968726,105.2871 113.556726,108.5171 112.330726,108.6631 C111.103726,108.8071 109.034726,107.7081 108.615726,107.1421 C108.196726,106.5761 108.670726,105.4631 108.670726,105.4631 C108.670726,105.4631 107.841726,105.7341 107.462726,105.6341 C107.082726,105.5331 105.615726,104.0641 105.308726,103.3391 C105.000726,102.6151 105.441726,100.9941 105.441726,100.9941 C105.441726,100.9941 104.803726,101.0081 104.290726,100.7781 C103.777726,100.5481 102.424726,98.4600997 102.281726,97.9580997 C102.137726,97.4550997 102.638726,95.8650997 102.638726,95.8650997 C101.552726,95.2210997 100.958726,93.3360997 101.639726,92.2980997 C102.320726,91.2620997 107.669726,86.8500997 109.833726,85.5530997 C111.999726,84.2570997 116.245726,83.4030997 116.245726,83.4030997 L119.835726,80.8730997 C122.475726,77.6870997 128.489726,72.6410997 137.716726,64.8810997 C150.831726,53.8520997 157.067726,42.0200997 173.594726,37.0740997 C190.122726,32.1260997 221.397726,41.4570997 221.397726,41.4570997 C232.777726,40.0970997 238.521726,46.5380997 238.521726,46.5380997 L238.521726,46.5400997 C242.135726,46.2310997 245.839726,46.4750997 249.469726,47.3000997 C249.820726,47.1000997 250.259726,46.9760997 250.797726,46.9400997 C259.454726,46.3600997 263.598726,40.9750997 263.598726,40.9750997 L264.239726,39.9370997 C263.208726,39.4210997 262.375726,38.8990997 262.181726,38.4920997 C261.595726,37.2590997 258.189726,24.2550997 258.320726,23.9320997 C258.450726,23.6100997 259.310726,21.7190997 259.190726,21.4770997 C259.069726,21.2360997 258.267726,20.4070997 258.127726,20.0870997 C257.988726,19.7660997 257.780726,16.5490997 257.968726,16.0250997 C258.154726,15.5030997 259.165726,14.5110997 259.144726,14.1620997 C259.123726,13.8140997 258.113726,12.1190997 258.235726,11.9240997 C258.353726,11.7290997 259.249726,9.55809967 259.695726,9.16009967 C260.140726,8.76209967 262.323726,7.88709967 262.323726,7.88709967 C262.323726,7.88709967 263.251726,5.49909967 265.066726,4.73209967 C266.880726,3.96609967 270.805726,3.15009967 270.805726,3.15009967 C270.805726,3.15009967 272.407726,0.976099667 273.835726,0.510099667 C275.264726,0.0430996665 282.386726,0.586099667 282.386726,0.586099667 C282.386726,0.586099667 283.769726,-0.244900333 285.052726,0.0720996665 C286.335726,0.389099667 289.193726,1.20309967 289.193726,1.20309967 C289.193726,1.20309967 291.165726,0.398099667 292.487726,0.872099667 C293.807726,1.34709967 301.502726,7.41309967 301.502726,7.41309967 C301.502726,7.41309967 304.358726,8.56009967 305.075726,9.47009967 C305.794726,10.3810997 310.011726,17.7370997 310.171726,19.4480997 C310.330726,21.1570997 307.708726,27.4130997 307.708726,27.4130997 L307.707726,27.4130997" id="Fill-17" fill="#FFFFFE"></path>
    </g>
</svg>